<svg width="216" height="26" viewBox="0 0 216 26" fill="none" xmlns="http://www.w3.org/2000/svg">
<path d="M198.97 25.0708V0.667969H202.959V9.72711C203.676 8.99168 204.508 8.45683 205.456 8.12254C206.404 7.78825 207.364 7.62111 208.335 7.62111C209.954 7.62111 211.329 7.9554 212.462 8.62397C213.618 9.27026 214.497 10.1728 215.098 11.3317C215.7 12.4683 216 13.772 216 15.2428V25.0708H212.046V15.2763C212.046 14.4071 211.826 13.6494 211.387 13.0031C210.971 12.3345 210.416 11.822 209.722 11.4654C209.052 11.0865 208.3 10.8971 207.468 10.8971C206.682 10.8971 205.942 11.0754 205.248 11.432C204.554 11.7885 203.999 12.29 203.583 12.9363C203.167 13.5825 202.959 14.318 202.959 15.1425V25.0708H198.97Z" fill="#1A1A1A"/>
<path d="M176.245 25.4722C174.534 25.4722 173.043 25.149 171.771 24.5027C170.499 23.8342 169.517 22.9205 168.823 21.7616C168.129 20.6027 167.782 19.299 167.782 17.8505V8.02246H171.771V17.817C171.771 18.6862 171.968 19.455 172.361 20.1236C172.777 20.7699 173.32 21.2825 173.991 21.6613C174.685 22.0179 175.436 22.1962 176.245 22.1962C177.055 22.1962 177.795 22.0179 178.465 21.6613C179.159 21.2825 179.702 20.7699 180.095 20.1236C180.512 19.455 180.72 18.6862 180.72 17.817V8.02246H184.708V17.8505C184.708 19.299 184.361 20.6027 183.668 21.7616C182.974 22.9205 181.991 23.8342 180.72 24.5027C179.448 25.149 177.956 25.4722 176.245 25.4722Z" fill="#1A1A1A"/>
<path d="M137.039 25.0708V14.8751C137.039 13.5602 137.362 12.3568 138.01 11.2648C138.657 10.1505 139.594 9.27024 140.819 8.62395C142.045 7.95538 143.513 7.62109 145.224 7.62109C146.056 7.62109 146.854 7.72138 147.617 7.92195C148.38 8.12252 149.086 8.44567 149.733 8.89138C150.404 9.31481 150.97 9.84967 151.432 10.496H151.467C151.93 9.84967 152.485 9.31481 153.132 8.89138C153.803 8.44567 154.519 8.12252 155.282 7.92195C156.069 7.72138 156.878 7.62109 157.71 7.62109C159.445 7.62109 160.913 7.95538 162.115 8.62395C163.341 9.27024 164.277 10.1505 164.925 11.2648C165.572 12.3568 165.896 13.5602 165.896 14.8751V25.0708H161.942V14.8751C161.942 14.1397 161.745 13.4711 161.352 12.8694C160.982 12.2677 160.485 11.7885 159.861 11.432C159.236 11.0754 158.52 10.8971 157.71 10.8971C156.924 10.8971 156.207 11.0754 155.56 11.432C154.912 11.7885 154.392 12.2677 153.999 12.8694C153.629 13.4711 153.444 14.1397 153.444 14.8751V25.0708H149.49V14.8751C149.49 14.1397 149.294 13.4711 148.901 12.8694C148.507 12.2677 147.987 11.7885 147.34 11.432C146.715 11.0754 146.01 10.8971 145.224 10.8971C144.438 10.8971 143.721 11.0754 143.074 11.432C142.449 11.7885 141.941 12.2677 141.548 12.8694C141.178 13.4711 140.993 14.1397 140.993 14.8751V25.0708H137.039Z" fill="#1A1A1A"/>
<path d="M105.331 25.0708V14.8751C105.331 13.5602 105.655 12.3568 106.302 11.2648C106.95 10.1505 107.886 9.27024 109.112 8.62395C110.337 7.95538 111.806 7.62109 113.517 7.62109C114.349 7.62109 115.147 7.72138 115.91 7.92195C116.673 8.12252 117.378 8.44567 118.026 8.89138C118.696 9.31481 119.263 9.84967 119.725 10.496H119.76C120.222 9.84967 120.777 9.31481 121.425 8.89138C122.095 8.44567 122.812 8.12252 123.575 7.92195C124.361 7.72138 125.171 7.62109 126.003 7.62109C127.737 7.62109 129.206 7.95538 130.408 8.62395C131.633 9.27024 132.57 10.1505 133.217 11.2648C133.865 12.3568 134.188 13.5602 134.188 14.8751V25.0708H130.234V14.8751C130.234 14.1397 130.038 13.4711 129.645 12.8694C129.275 12.2677 128.778 11.7885 128.153 11.432C127.529 11.0754 126.812 10.8971 126.003 10.8971C125.217 10.8971 124.5 11.0754 123.853 11.432C123.205 11.7885 122.685 12.2677 122.292 12.8694C121.922 13.4711 121.737 14.1397 121.737 14.8751V25.0708H117.783V14.8751C117.783 14.1397 117.586 13.4711 117.193 12.8694C116.8 12.2677 116.28 11.7885 115.632 11.432C115.008 11.0754 114.303 10.8971 113.517 10.8971C112.731 10.8971 112.014 11.0754 111.366 11.432C110.742 11.7885 110.233 12.2677 109.84 12.8694C109.47 13.4711 109.285 14.1397 109.285 14.8751V25.0708H105.331Z" fill="#1A1A1A"/>
<path d="M92.1845 25.472C90.4965 25.472 89.0398 25.0708 87.8143 24.2685C86.5888 23.4662 85.6407 22.3965 84.9702 21.0594C84.3227 19.7 83.999 18.2068 83.999 16.58C83.999 14.8862 84.369 13.3708 85.1089 12.0337C85.872 10.6742 86.9472 9.60452 88.3345 8.82452C89.745 8.02224 91.4214 7.62109 93.3637 7.62109C95.2829 7.62109 96.9131 8.02224 98.2542 8.82452C99.6184 9.60452 100.659 10.6742 101.376 12.0337C102.116 13.3708 102.486 14.864 102.486 16.5131V25.0708H98.497V21.8951H98.4276C98.0808 22.5191 97.6299 23.1097 97.0749 23.6668C96.52 24.2017 95.8379 24.6362 95.0286 24.9705C94.2193 25.3048 93.2712 25.472 92.1845 25.472ZM93.2597 22.196C94.3002 22.196 95.202 21.9508 95.965 21.4605C96.7512 20.948 97.3524 20.2682 97.7686 19.4214C98.2079 18.5522 98.4276 17.5828 98.4276 16.5131C98.4276 15.4434 98.2195 14.4962 97.8033 13.6717C97.3871 12.8248 96.7975 12.1562 96.0344 11.666C95.2713 11.1534 94.358 10.8971 93.2944 10.8971C92.1845 10.8971 91.2364 11.1534 90.4503 11.666C89.6641 12.1562 89.0629 12.8248 88.6467 13.6717C88.2305 14.5185 88.0224 15.4768 88.0224 16.5465C88.0224 17.594 88.2305 18.5522 88.6467 19.4214C89.0629 20.2682 89.6525 20.948 90.4156 21.4605C91.2017 21.9508 92.1498 22.196 93.2597 22.196Z" fill="#1A1A1A"/>
<path d="M53.2979 25.0708V14.8751C53.2979 13.5602 53.6216 12.3568 54.269 11.2648C54.9164 10.1505 55.8529 9.27024 57.0784 8.62395C58.3039 7.95538 59.7722 7.62109 61.4833 7.62109C62.3157 7.62109 63.1134 7.72138 63.8765 7.92195C64.6395 8.12252 65.3448 8.44567 65.9922 8.89138C66.6628 9.31481 67.2293 9.84967 67.6918 10.496H67.7264C68.1889 9.84967 68.7438 9.31481 69.3913 8.89138C70.0618 8.44567 70.7786 8.12252 71.5417 7.92195C72.3279 7.72138 73.1372 7.62109 73.9696 7.62109C75.7038 7.62109 77.1721 7.95538 78.3745 8.62395C79.6 9.27024 80.5364 10.1505 81.1839 11.2648C81.8313 12.3568 82.155 13.5602 82.155 14.8751V25.0708H78.201V14.8751C78.201 14.1397 78.0045 13.4711 77.6114 12.8694C77.2414 12.2677 76.7443 11.7885 76.12 11.432C75.4957 11.0754 74.7789 10.8971 73.9696 10.8971C73.1834 10.8971 72.4666 11.0754 71.8192 11.432C71.1717 11.7885 70.6515 12.2677 70.2584 12.8694C69.8884 13.4711 69.7034 14.1397 69.7034 14.8751V25.0708H65.7494V14.8751C65.7494 14.1397 65.5529 13.4711 65.1598 12.8694C64.7667 12.2677 64.2465 11.7885 63.599 11.432C62.9747 11.0754 62.2695 10.8971 61.4833 10.8971C60.6971 10.8971 59.9803 11.0754 59.3329 11.432C58.7086 11.7885 58.1999 12.2677 57.8068 12.8694C57.4368 13.4711 57.2518 14.1397 57.2518 14.8751V25.0708H53.2979Z" fill="#1A1A1A"/>
<mask id="mask0_111_75" style="mask-type:alpha" maskUnits="userSpaceOnUse" x="186" y="0" width="20" height="26">
<rect x="186.909" width="18.3055" height="26" fill="#505050"/>
</mask>
<g mask="url(#mask0_111_75)">
<path d="M192.1 25.0716C190.527 25.0716 189.29 24.637 188.389 23.7679C187.51 22.8987 187.071 21.7176 187.071 20.2244L186.909 12.0714V3.74414H191.025V20.0573C191.025 20.5699 191.186 20.9933 191.51 21.3276C191.834 21.6396 192.262 21.7956 192.793 21.7956H196.505V25.0716H192.1ZM184.018 11.299V8.023H196.539V11.299H184.018Z" fill="#1A1A1A"/>
</g>
<mask id="mask1_111_75" style="mask-type:alpha" maskUnits="userSpaceOnUse" x="31" y="0" width="20" height="26">
<rect x="31.7937" width="18.3055" height="26" fill="#FF4000"/>
</mask>
<g mask="url(#mask1_111_75)">
<path d="M36.985 25.0716C35.4126 25.0716 34.1755 24.637 33.2738 23.7679C32.3951 22.8987 31.9558 21.7176 31.9558 20.2244L31.7939 12.0714V3.74414H35.9098V20.0573C35.9098 20.5699 36.0716 20.9933 36.3953 21.3276C36.719 21.6396 37.1468 21.7956 37.6786 21.7956H41.3898V25.0716H36.985ZM28.9036 11.299V8.023H41.4245V11.299H28.9036Z" fill="#FF4000"/>
</g>
<path d="M14.7281 25.071V21.795H23.2604C23.6766 21.795 24.035 21.7059 24.3356 21.5276C24.6593 21.3493 24.9021 21.1153 25.064 20.8256C25.2489 20.5359 25.3414 20.235 25.3414 19.923C25.3414 19.5665 25.2605 19.2545 25.0987 18.987C24.9368 18.7196 24.7056 18.5079 24.405 18.3519C24.1044 18.1736 23.7575 18.0845 23.3644 18.0845H19.896C18.763 18.0845 17.7572 17.9062 16.8785 17.5496C15.9999 17.193 15.3062 16.647 14.7975 15.9116C14.2888 15.1539 14.0344 14.2067 14.0344 13.0702C14.0344 12.1565 14.2657 11.3207 14.7281 10.563C15.2137 9.80532 15.8611 9.19246 16.6704 8.72446C17.4797 8.25646 18.3931 8.02246 19.4105 8.02246H27.6306V11.2985H19.792C19.2602 11.2985 18.8208 11.4656 18.474 11.7999C18.1271 12.1119 17.9537 12.5019 17.9537 12.9699C17.9537 13.4156 18.1271 13.8056 18.474 14.1399C18.8208 14.4742 19.2833 14.6413 19.8614 14.6413H23.2257C24.4975 14.6413 25.5842 14.8307 26.486 15.2096C27.3878 15.5885 28.0699 16.1567 28.5324 16.9145C29.018 17.6722 29.2607 18.6305 29.2607 19.7893C29.2607 20.7253 29.018 21.6056 28.5324 22.4302C28.0468 23.2325 27.3762 23.8787 26.5207 24.369C25.6883 24.837 24.7402 25.071 23.6766 25.071H14.7281Z" fill="#FF4000"/>
<mask id="mask2_111_75" style="mask-type:alpha" maskUnits="userSpaceOnUse" x="0" y="5" width="19" height="21">
<rect y="5.57031" width="18.3055" height="19.5" fill="#FF4000"/>
</mask>
<g mask="url(#mask2_111_75)">
<path d="M3.73071 29.7125V26.2025H8.48243V9.8225H4.04287V6.3125H12.6792V26.2025H16.9107V29.7125H3.73071Z" fill="#FF4000"/>
</g>
</svg>
