<svg width="48" height="48" viewBox="0 0 48 48" fill="none" xmlns="http://www.w3.org/2000/svg">
<rect width="48" height="48" rx="6" fill="#FF4000"/>
<path d="M29.8997 14.1401L31.2197 12.8201C32.3133 11.7266 34.0862 11.7266 35.1797 12.8201C36.2732 13.9137 36.2732 15.6866 35.1797 16.7801L33.8597 18.1001M29.8997 14.1401L21.0206 23.0192C20.3439 23.696 19.8639 24.5437 19.6318 25.4721L18.6665 29.3333L22.5277 28.368C23.4561 28.136 24.3038 27.6559 24.9806 26.9792L33.8597 18.1001M29.8997 14.1401L33.8597 18.1001" stroke="white" stroke-width="1.5" stroke-linejoin="round"/>
<path d="M33.3332 26.0001C33.3332 30.3834 33.3332 32.575 32.1227 34.0502C31.9011 34.3202 31.6535 34.5678 31.3833 34.7894C29.9083 36.0001 27.7165 36.0001 23.3332 36.0001H22.6667C17.6383 36.0001 15.1242 36.0001 13.5621 34.4379C12 32.8759 12 30.3617 12 25.3334V24.6667C12 20.2834 12 18.0918 13.2106 16.6167C13.4322 16.3466 13.6799 16.099 13.9499 15.8773C15.4251 14.6667 17.6167 14.6667 22 14.6667" stroke="white" stroke-width="1.5" stroke-linecap="round" stroke-linejoin="round"/>
</svg>
