<svg width="20" height="20" viewBox="0 0 20 20" fill="none" xmlns="http://www.w3.org/2000/svg">
<path d="M3.3335 14.9838V8.08945C3.3335 5.06164 3.3335 3.54774 4.3098 2.60712C5.28612 1.6665 6.85746 1.6665 10.0002 1.6665C13.1428 1.6665 14.7142 1.6665 15.6905 2.60712C16.6668 3.54774 16.6668 5.06164 16.6668 8.08945V14.9838C16.6668 16.9054 16.6668 17.8662 16.0228 18.2101C14.7756 18.876 12.4362 16.6542 11.3252 15.9852C10.6808 15.5972 10.3587 15.4032 10.0002 15.4032C9.64166 15.4032 9.3195 15.5972 8.67516 15.9852C7.56416 16.6542 5.22472 18.876 3.97754 18.2101C3.3335 17.8662 3.3335 16.9054 3.3335 14.9838Z" stroke="#1A1A1A" stroke-width="1.5" stroke-linecap="round" stroke-linejoin="round"/>
</svg>
