<svg width="22" height="22" viewBox="0 0 22 22" fill="none" xmlns="http://www.w3.org/2000/svg">
<g opacity="0.7">
<path d="M2.36443 7.9063C2.29962 7.36567 2.26722 7.09536 2.3128 6.87408C2.44284 6.24264 2.99835 5.73062 3.73865 5.55985C3.99808 5.5 4.32375 5.5 4.97511 5.5H17.0245C17.6759 5.5 18.0016 5.5 18.261 5.55985C19.0013 5.73062 19.5568 6.24264 19.6869 6.87408C19.7325 7.09536 19.7 7.36567 19.6352 7.9063C19.4867 9.1453 18.7907 9.823 17.4634 10.2138L13.6398 11.3394C12.3328 11.7243 11.6792 11.9167 10.9998 11.9167C10.3205 11.9167 9.66691 11.7243 8.3598 11.3394L4.53625 10.2138C3.20903 9.82309 2.51297 9.1453 2.36443 7.9063Z" stroke="#1A1A1A" stroke-width="1.5"/>
<path d="M3.17426 9.625L2.99436 11.7111C2.67191 15.4504 2.51068 17.3201 3.54506 18.5143C4.57945 19.7083 6.3603 19.7083 9.922 19.7083H12.078C15.6397 19.7083 17.4205 19.7083 18.455 18.5143C19.4893 17.3201 19.3281 15.4504 19.0056 11.7111L18.8258 9.625" stroke="#1A1A1A" stroke-width="1.5" stroke-linecap="round" stroke-linejoin="round"/>
<path d="M14.2082 5.0415L14.1373 4.79867C13.7844 3.58863 13.6079 2.98361 13.1878 2.63756C12.7677 2.2915 12.2097 2.2915 11.0936 2.2915H10.9061C9.78993 2.2915 9.23195 2.2915 8.81184 2.63756C8.39172 2.98361 8.21526 3.58863 7.86233 4.79867L7.7915 5.0415" stroke="#1A1A1A" stroke-width="1.5"/>
</g>
</svg>
