<svg width="20" height="20" viewBox="0 0 20 20" fill="none" xmlns="http://www.w3.org/2000/svg">
<g opacity="0.7">
<path d="M15.455 0.90918V2.72736M4.5459 0.90918V2.72736" stroke="#1A1A1A" stroke-width="1.36364" stroke-linecap="round" stroke-linejoin="round"/>
<path d="M9.99555 10.9092H10.0037M9.99555 14.5455H10.0037M13.6278 10.9092H13.636M6.36328 10.9092H6.37144M6.36328 14.5455H6.37144" stroke="#1A1A1A" stroke-width="1.81818" stroke-linecap="round" stroke-linejoin="round"/>
<path d="M2.27246 6.36353H17.727" stroke="#1A1A1A" stroke-width="1.36364" stroke-linecap="round" stroke-linejoin="round"/>
<path d="M1.36328 10.221C1.36328 6.25988 1.36328 4.27928 2.50157 3.0487C3.63986 1.81812 5.47191 1.81812 9.13601 1.81812H10.8633C14.5274 1.81812 16.3595 1.81812 17.4977 3.0487C18.636 4.27928 18.636 6.25988 18.636 10.221V10.6879C18.636 14.6491 18.636 16.6297 17.4977 17.8603C16.3595 19.0908 14.5274 19.0908 10.8633 19.0908H9.13601C5.47191 19.0908 3.63986 19.0908 2.50157 17.8603C1.36328 16.6297 1.36328 14.6491 1.36328 10.6879V10.221Z" stroke="#1A1A1A" stroke-width="1.36364" stroke-linecap="round" stroke-linejoin="round"/>
<path d="M1.81836 6.36353H18.182" stroke="#1A1A1A" stroke-width="1.36364" stroke-linecap="round" stroke-linejoin="round"/>
</g>
</svg>
