<svg width="18" height="18" viewBox="0 0 18 18" fill="none" xmlns="http://www.w3.org/2000/svg">
<path d="M6.86869 4.28417L6.5667 3.60469C6.36924 3.16041 6.27051 2.93826 6.12286 2.76826C5.93781 2.55521 5.6966 2.39846 5.42676 2.31589C5.21144 2.25 4.96834 2.25 4.48216 2.25C3.77093 2.25 3.41532 2.25 3.1168 2.38672C2.76515 2.54777 2.44758 2.89746 2.32105 3.26295C2.21363 3.57322 2.2444 3.89207 2.30593 4.52978C2.96093 11.3176 6.68236 15.0391 13.4702 15.694C14.1079 15.7556 14.4268 15.7864 14.737 15.679C15.1026 15.5525 15.4522 15.2348 15.6133 14.8832C15.75 14.5846 15.75 14.2291 15.75 13.5178C15.75 13.0316 15.75 12.7885 15.6841 12.5732C15.6015 12.3034 15.4448 12.0622 15.2317 11.8771C15.0618 11.7295 14.8396 11.6308 14.3953 11.4333L13.7158 11.1313C13.2347 10.9174 12.9941 10.8106 12.7497 10.7873C12.5157 10.765 12.2798 10.7979 12.0608 10.8832C11.832 10.9723 11.6298 11.1408 11.2252 11.4778C10.8226 11.8134 10.6213 11.9812 10.3753 12.071C10.1572 12.1507 9.86892 12.1802 9.63927 12.1463C9.38014 12.1082 9.18177 12.0022 8.78494 11.7901C7.55044 11.1304 6.86965 10.4496 6.2099 9.21503C5.99785 8.81828 5.89183 8.61983 5.85365 8.36078C5.8198 8.13105 5.84931 7.84275 5.92897 7.62472C6.01884 7.37871 6.18661 7.17739 6.52214 6.77475C6.85921 6.37026 7.02775 6.16802 7.11686 5.93918C7.20214 5.72021 7.23496 5.4843 7.21271 5.25036C7.18945 5.00589 7.08253 4.76532 6.86869 4.28417Z" stroke="white" stroke-width="1.5" stroke-linecap="round"/>
</svg>
