<svg width="26" height="26" viewBox="0 0 26 26" fill="none" xmlns="http://www.w3.org/2000/svg">
<path d="M9.20801 15.7084H16.7914M12.9997 19.5001V11.9167" stroke="#1A1A1A" stroke-width="1.625" stroke-linecap="round"/>
<path d="M7.58365 6.50049C6.26129 6.50445 5.52947 6.53609 4.92811 6.78849C4.08579 7.14204 3.39983 7.7951 2.99911 8.625C2.67202 9.3024 2.6185 10.1703 2.51145 11.906L2.3437 14.6259C2.07749 18.9424 1.94439 21.1006 3.21099 22.467C4.47758 23.8333 6.6114 23.8333 10.8791 23.8333H15.1216C19.3893 23.8333 21.523 23.8333 22.7897 22.467C24.0563 21.1006 23.9232 18.9424 23.657 14.6259L23.4892 11.906C23.3821 10.1703 23.3286 9.3024 23.0016 8.625C22.6008 7.7951 21.9149 7.14204 21.0726 6.78849C20.4712 6.53609 19.7393 6.50445 18.417 6.50049" stroke="#1A1A1A" stroke-width="1.625" stroke-linecap="round"/>
<path d="M18.4164 7.58341L17.4567 5.1843C17.0427 4.1492 16.6824 2.97502 15.6177 2.44793C15.0498 2.16675 14.3664 2.16675 12.9997 2.16675C11.633 2.16675 10.9496 2.16675 10.3816 2.44793C9.317 2.97502 8.9567 4.1492 8.54266 5.1843L7.58301 7.58341" stroke="#1A1A1A" stroke-width="1.625" stroke-linecap="round" stroke-linejoin="round"/>
<path d="M13 6.5H13.009" stroke="#1A1A1A" stroke-width="2.16667" stroke-linecap="round" stroke-linejoin="round"/>
</svg>
