<svg width="13" height="12" viewBox="0 0 13 12" fill="none" xmlns="http://www.w3.org/2000/svg">
<path d="M10.0356 2.75L9.72579 7.76255C9.64659 9.0432 9.60704 9.68355 9.28604 10.1439C9.12729 10.3715 8.92299 10.5636 8.68599 10.708C8.20669 11 7.56514 11 6.28199 11C4.9972 11 4.35479 11 3.87517 10.7074C3.63804 10.5628 3.43364 10.3704 3.27498 10.1424C2.95408 9.6813 2.91537 9.04005 2.83795 7.7576L2.53564 2.75" stroke="#1A1A1A" stroke-width="1.24554" stroke-linecap="round"/>
<path d="M1.78564 2.75H10.7856M8.31349 2.75L7.97219 2.04587C7.74544 1.57813 7.63204 1.34426 7.43649 1.19841C7.39314 1.16605 7.34719 1.13727 7.29914 1.11235C7.08259 1 6.82269 1 6.30289 1C5.77004 1 5.50364 1 5.28348 1.11706C5.23469 1.143 5.18813 1.17295 5.14429 1.20659C4.94646 1.35835 4.83596 1.60077 4.61495 2.08563L4.3121 2.75" stroke="#1A1A1A" stroke-width="1.24554" stroke-linecap="round"/>
<path d="M5.03564 8.25V5.25" stroke="#1A1A1A" stroke-width="1.24554" stroke-linecap="round"/>
<path d="M7.53564 8.25V5.25" stroke="#1A1A1A" stroke-width="1.24554" stroke-linecap="round"/>
</svg>
