<svg width="48" height="48" viewBox="0 0 48 48" fill="none" xmlns="http://www.w3.org/2000/svg">
<rect width="48" height="48" rx="6" fill="white"/>
<path d="M34.6668 37.3333V33.3333C34.6668 29.5621 34.6668 27.6765 33.4952 26.5049C32.3236 25.3333 30.438 25.3333 26.6668 25.3333L24.0002 27.9999L21.3335 25.3333C17.5623 25.3333 15.6766 25.3333 14.5051 26.5049C13.3335 27.6765 13.3335 29.5621 13.3335 33.3333V37.3333" stroke="#FF4000" stroke-width="1.5" stroke-linecap="round" stroke-linejoin="round"/>
<path d="M29.3335 25.3333V32.6666" stroke="#FF4000" stroke-width="1.5" stroke-linecap="round" stroke-linejoin="round"/>
<path d="M19.3332 25.3333V30.6666M19.3332 30.6666C20.8059 30.6666 21.9998 31.8605 21.9998 33.3333V34.6666M19.3332 30.6666C17.8604 30.6666 16.6665 31.8605 16.6665 33.3333V34.6666" stroke="#FF4000" stroke-width="1.5" stroke-linecap="round" stroke-linejoin="round"/>
<path d="M28.6668 16.6667V15.3334C28.6668 12.7561 26.5775 10.6667 24.0002 10.6667C21.4228 10.6667 19.3335 12.7561 19.3335 15.3334V16.6667C19.3335 19.2441 21.4228 21.3334 24.0002 21.3334C26.5775 21.3334 28.6668 19.2441 28.6668 16.6667Z" stroke="#FF4000" stroke-width="1.5" stroke-linecap="round" stroke-linejoin="round"/>
<path d="M30.3335 33.6667C30.3335 34.219 29.8858 34.6667 29.3335 34.6667C28.7812 34.6667 28.3335 34.219 28.3335 33.6667C28.3335 33.1145 28.7812 32.6667 29.3335 32.6667C29.8858 32.6667 30.3335 33.1145 30.3335 33.6667Z" stroke="#FF4000" stroke-width="1.5"/>
</svg>
