<svg width="22" height="22" viewBox="0 0 22 22" fill="none" xmlns="http://www.w3.org/2000/svg">
<g opacity="0.7">
<path d="M6.4165 16.5C4.73998 16.8774 3.6665 17.4573 3.6665 18.1076C3.6665 19.2448 6.94975 20.1667 10.9998 20.1667C15.0499 20.1667 18.3332 19.2448 18.3332 18.1076C18.3332 17.4573 17.2597 16.8774 15.5832 16.5" stroke="#1A1A1A" stroke-width="1.5" stroke-linecap="round"/>
<path d="M13.2918 8.25016C13.2918 9.5158 12.2658 10.5418 11.0002 10.5418C9.73452 10.5418 8.7085 9.5158 8.7085 8.25016C8.7085 6.98451 9.73452 5.9585 11.0002 5.9585C12.2658 5.9585 13.2918 6.98451 13.2918 8.25016Z" stroke="#1A1A1A" stroke-width="1.5"/>
<path d="M12.1528 16.036C11.8436 16.3337 11.4304 16.5002 11.0003 16.5002C10.5702 16.5002 10.157 16.3337 9.84782 16.036C7.0166 13.2926 3.22242 10.2279 5.07273 5.77858C6.07317 3.37287 8.47469 1.8335 11.0003 1.8335C13.5259 1.8335 15.9274 3.37288 16.9279 5.77858C18.7759 10.2223 14.991 13.302 12.1528 16.036Z" stroke="#1A1A1A" stroke-width="1.5"/>
</g>
</svg>
