<svg width="24" height="24" viewBox="0 0 24 24" fill="none" xmlns="http://www.w3.org/2000/svg">
<path d="M19.5433 10.5L22 11C21.497 5.94668 17.2229 2 12.0247 2C6.48824 2 2 6.47715 2 12C2 17.5228 6.48824 22 12.0247 22C16.1355 22 19.6684 19.5318 21.2153 16" stroke="#1A1A1A" stroke-width="1.5" stroke-linecap="round" stroke-linejoin="round"/>
<path d="M10.3371 10.8809C9.25714 10.8809 8.71714 11.6609 8.59714 12.1409C8.47714 12.6209 8.47714 14.3609 8.54914 15.0809C8.78914 15.9809 9.38914 16.3529 9.97714 16.4729C10.5171 16.5209 12.7971 16.5029 13.4571 16.5029C14.4171 16.5209 15.1371 16.1609 15.4371 15.0809C15.4971 14.7209 15.5571 12.7409 15.4071 12.1409C15.0891 11.1809 14.2971 10.8809 13.6971 10.8809H10.3371Z" stroke="#1A1A1A" stroke-width="1.5" stroke-linecap="round"/>
<path d="M10.25 10.4585C10.25 10.3985 10.2582 10.0531 10.2596 9.61854C10.2609 9.22145 10.226 8.83854 10.4156 8.48814C11.126 7.07454 13.166 7.21854 13.67 8.65854C13.7573 8.89562 13.7626 9.27146 13.76 9.61854C13.7567 10.062 13.766 10.4585 13.766 10.4585" stroke="#1A1A1A" stroke-width="1.5" stroke-linecap="round"/>
</svg>
