<svg width="30" height="30" viewBox="0 0 30 30" fill="none" xmlns="http://www.w3.org/2000/svg">
<path d="M3.1624 17.9925C2.89659 19.6839 4.085 20.8577 5.54006 21.4427C11.1185 23.6857 18.8815 23.6857 24.4599 21.4427C25.915 20.8577 27.1034 19.6839 26.8376 17.9925C26.6743 16.9531 25.8665 16.0876 25.268 15.2425C24.4841 14.1219 24.4063 12.8996 24.4061 11.5993C24.4061 6.57388 20.1949 2.5 15 2.5C9.80516 2.5 5.59391 6.57388 5.59391 11.5993C5.59379 12.8996 5.5159 14.1219 4.73201 15.2425C4.13355 16.0876 3.32576 16.9531 3.1624 17.9925Z" stroke="white" stroke-width="2" stroke-linecap="round" stroke-linejoin="round"/>
<path d="M11.25 26.25C12.2452 27.0274 13.5594 27.5 15 27.5C16.4406 27.5 17.7549 27.0274 18.75 26.25" stroke="white" stroke-width="2" stroke-linecap="round" stroke-linejoin="round"/>
</svg>
