<svg width="28" height="28" viewBox="0 0 28 28" fill="none" xmlns="http://www.w3.org/2000/svg">
<path d="M13.5 5.29686C12.8666 5.10373 12.1949 5 11.5 5C7.85617 5 4.84988 7.85222 4.65837 11.491C4.58489 12.887 4.66936 14.373 3.42213 15.3084C2.84164 15.7438 2.5 16.427 2.5 17.1527C2.5 18.1508 3.2818 19 4.3 19H18.7C19.7182 19 20.5 18.1508 20.5 17.1527C20.5 16.427 20.1584 15.7438 19.5779 15.3084C19.5513 15.2885 19.5254 15.2683 19.5 15.2479" stroke="#1A1A1A" stroke-width="1.5" stroke-linecap="round" stroke-linejoin="round"/>
<path d="M10 3.125C10 3.95343 10.6716 5 11.5 5C12.3284 5 13 3.95343 13 3.125C13 2.29657 12.3284 2 11.5 2C10.6716 2 10 2.29657 10 3.125Z" stroke="#1A1A1A" stroke-width="1.5"/>
<path d="M14.5 19C14.5 20.6569 13.1569 22 11.5 22C9.84315 22 8.5 20.6569 8.5 19" stroke="#1A1A1A" stroke-width="1.5" stroke-linecap="round" stroke-linejoin="round"/>
<path d="M15.9 6.9L20.1 11.1L15.9 6.9ZM21 9C21 7.34314 19.6569 6 18 6C16.3431 6 15 7.34314 15 9C15 10.6569 16.3431 12 18 12C19.6569 12 21 10.6569 21 9Z" fill="#FF0000"/>
</svg>
