<svg width="30" height="30" viewBox="0 0 30 30" fill="none" xmlns="http://www.w3.org/2000/svg">
<path d="M16.25 5H3.75" stroke="white" stroke-width="1.5" stroke-linecap="round" stroke-linejoin="round"/>
<path d="M13.75 23.75H3.75" stroke="white" stroke-width="1.5" stroke-linecap="round" stroke-linejoin="round"/>
<path d="M26.25 23.75H21.25" stroke="white" stroke-width="1.5" stroke-linecap="round" stroke-linejoin="round"/>
<path d="M26.25 14.375H13.75" stroke="white" stroke-width="1.5" stroke-linecap="round" stroke-linejoin="round"/>
<path d="M26.25 5H23.75" stroke="white" stroke-width="1.5" stroke-linecap="round" stroke-linejoin="round"/>
<path d="M6.25 14.375H3.75" stroke="white" stroke-width="1.5" stroke-linecap="round" stroke-linejoin="round"/>
<path d="M18.125 2.5C18.7074 2.5 18.9986 2.5 19.2284 2.59515C19.5346 2.72201 19.778 2.96536 19.9049 3.27165C20 3.50136 20 3.79258 20 4.375V5.625C20 6.20742 20 6.49864 19.9049 6.72835C19.778 7.03464 19.5346 7.27799 19.2284 7.40485C18.9986 7.5 18.7074 7.5 18.125 7.5C17.5426 7.5 17.2514 7.5 17.0216 7.40485C16.7154 7.27799 16.472 7.03464 16.3451 6.72835C16.25 6.49864 16.25 6.20742 16.25 5.625V4.375C16.25 3.79258 16.25 3.50136 16.3451 3.27165C16.472 2.96536 16.7154 2.72201 17.0216 2.59515C17.2514 2.5 17.5426 2.5 18.125 2.5Z" stroke="white" stroke-width="1.5" stroke-linecap="round" stroke-linejoin="round"/>
<path d="M15.625 21.25C16.2074 21.25 16.4986 21.25 16.7284 21.3451C17.0346 21.472 17.278 21.7154 17.4049 22.0216C17.5 22.2514 17.5 22.5426 17.5 23.125V24.375C17.5 24.9574 17.5 25.2486 17.4049 25.4784C17.278 25.7846 17.0346 26.028 16.7284 26.1549C16.4986 26.25 16.2074 26.25 15.625 26.25C15.0426 26.25 14.7514 26.25 14.5216 26.1549C14.2154 26.028 13.972 25.7846 13.8451 25.4784C13.75 25.2486 13.75 24.9574 13.75 24.375V23.125C13.75 22.5426 13.75 22.2514 13.8451 22.0216C13.972 21.7154 14.2154 21.472 14.5216 21.3451C14.7514 21.25 15.0426 21.25 15.625 21.25Z" stroke="white" stroke-width="1.5" stroke-linecap="round" stroke-linejoin="round"/>
<path d="M11.875 11.875C12.4574 11.875 12.7486 11.875 12.9784 11.9702C13.2846 12.097 13.528 12.3404 13.6549 12.6466C13.75 12.8764 13.75 13.1676 13.75 13.75V15C13.75 15.5824 13.75 15.8736 13.6549 16.1034C13.528 16.4096 13.2846 16.653 12.9784 16.7799C12.7486 16.875 12.4574 16.875 11.875 16.875C11.2926 16.875 11.0014 16.875 10.7717 16.7799C10.4654 16.653 10.222 16.4096 10.0952 16.1034C10 15.8736 10 15.5824 10 15V13.75C10 13.1676 10 12.8764 10.0952 12.6466C10.222 12.3404 10.4654 12.097 10.7717 11.9702C11.0014 11.875 11.2926 11.875 11.875 11.875Z" stroke="white" stroke-width="1.5" stroke-linecap="round" stroke-linejoin="round"/>
</svg>
