<svg width="277" height="300" viewBox="0 0 277 300" fill="none" xmlns="http://www.w3.org/2000/svg">
<path d="M0 28.8C0 18.719 0 13.6786 1.96188 9.82817C3.6876 6.44125 6.44125 3.6876 9.82817 1.96188C13.6786 0 18.7191 0 28.8 0H248.2C258.281 0 263.321 0 267.172 1.96188C270.559 3.6876 273.312 6.44125 275.038 9.82817C277 13.6786 277 18.7191 277 28.8V201.655C277 205.693 277 207.711 276.678 209.392C275.289 216.629 269.629 222.289 262.392 223.678C260.711 224 258.693 224 254.655 224C245.683 224 241.197 224 237.462 224.717C221.38 227.803 208.803 240.38 205.717 256.462C205 260.197 205 264.683 205 273.655V276.414C205 281.608 205 284.205 204.468 286.344C202.86 292.811 197.811 297.86 191.344 299.468C189.205 300 186.608 300 181.414 300H28.8C18.7191 300 13.6786 300 9.82817 298.038C6.44125 296.312 3.6876 293.559 1.96188 290.172C0 286.321 0 281.281 0 271.2V28.8Z" fill="#EAEAEA"/>
</svg>
