<svg width="22" height="22" viewBox="0 0 22 22" fill="none" xmlns="http://www.w3.org/2000/svg">
<g opacity="0.9">
<path d="M10.9997 20.1668C16.0622 20.1668 20.1663 16.0627 20.1663 11.0002C20.1663 5.93755 16.0622 1.8335 10.9997 1.8335C5.93706 1.8335 1.83301 5.93755 1.83301 11.0002C1.83301 16.0627 5.93706 20.1668 10.9997 20.1668Z" stroke="white" stroke-width="1.5"/>
<path d="M11.0068 9.63228C10.2475 9.63228 9.63184 10.2479 9.63184 11.0073C9.63184 11.7666 10.2475 12.3823 11.0068 12.3823C11.7662 12.3823 12.3818 11.7666 12.3818 11.0073C12.3818 10.2479 11.7662 9.63228 11.0068 9.63228ZM11.0068 9.63228V6.41553M13.7632 13.7679L11.9769 11.9817" stroke="white" stroke-width="1.5" stroke-linecap="round" stroke-linejoin="round"/>
</g>
</svg>
