<svg width="22" height="22" viewBox="0 0 22 22" fill="none" xmlns="http://www.w3.org/2000/svg">
<g opacity="0.7">
<path d="M14.6665 12.8335C14.6665 13.5929 15.2821 14.2085 16.0415 14.2085C16.8009 14.2085 17.4165 13.5929 17.4165 12.8335C17.4165 12.0741 16.8009 11.4585 16.0415 11.4585C15.2821 11.4585 14.6665 12.0741 14.6665 12.8335Z" stroke="#1A1A1A" stroke-width="1.5"/>
<path d="M17.325 7.3335C17.3851 7.03731 17.4167 6.73076 17.4167 6.41683C17.4167 3.88553 15.3646 1.8335 12.8333 1.8335C10.3021 1.8335 8.25 3.88553 8.25 6.41683C8.25 6.73076 8.28156 7.03731 8.34169 7.3335" stroke="#1A1A1A" stroke-width="1.5"/>
<path d="M6.41683 7.32697H14.6668C17.2595 7.32697 18.5559 7.32697 19.3614 8.13282C20.1668 8.93867 20.1668 10.2356 20.1668 12.8296V14.6638C20.1668 17.2578 20.1668 18.5548 19.3614 19.3607C18.5559 20.1665 17.2595 20.1665 14.6668 20.1665H9.16683C5.70986 20.1665 3.98138 20.1665 2.90744 19.0921C1.8335 18.0176 1.8335 16.2883 1.8335 12.8296V10.9954C1.8335 7.53677 1.8335 5.80745 2.90744 4.73299C3.77193 3.86808 5.06056 3.6994 7.3335 3.6665H9.16683" stroke="#1A1A1A" stroke-width="1.5" stroke-linecap="round"/>
</g>
</svg>
